<svg xmlns="http://www.w3.org/2000/svg" xmlns:xlink="http://www.w3.org/1999/xlink" version="1.1" x="0px" y="0px" viewBox="0 0 200 250" style="enable-background:new 0 0 200 200;" xml:space="preserve"><g><path d="M164.9,110.9l-1.6-0.4c-0.6-0.1-1-0.3-1.7-0.3l-2.1-0.1l-1.1,0l-0.5,0l-0.3,0l-1.2-0.1c-2.3-0.1-4.6-0.2-6.9-0.3   c1.4-6.7,2.2-13.4,2.2-20.1V76.1c0-1.1-1.5-1.9-3.4-1.9c-1.9,0-3.4,0.9-3.4,1.9v5c-0.6,2.1-1.3,4.6-2,7.2   c-2.4,7.9-7.2,14.9-13.8,19.8c-3.3,2.5-6.9,4.5-10.8,6c-3.9,1.5-7.9,2.5-12.1,2.9c-4.1,0.5-8.4,0.5-12.5-0.1l-1.6-0.2   c-0.5-0.1-1-0.2-1.5-0.3c-1-0.2-2-0.4-3.1-0.7c-2-0.6-4-1.1-5.9-2l-1.4-0.6c-0.5-0.2-0.9-0.5-1.4-0.7c-0.9-0.5-1.9-0.9-2.8-1.4   l-2.6-1.6c-0.9-0.5-1.6-1.2-2.5-1.8l-0.4-0.3l-1.4-1.1c-0.2-0.2-0.4-0.4-0.6-0.6c-0.7-0.7-1.5-1.4-2.2-2.1l-2-2.3l-0.5-0.6   l-0.4-0.6l-0.9-1.3c-3.7-5.6-5.9-12.1-6.6-18.9c-0.1-1.3-0.2-2.6-0.3-3.9v-3.1c0,0,0-0.1,0-0.1c0.1-4.5,0.8-8.9,2.1-13.1   c2-6.5,5.7-12.3,10.6-17c4.9-4.7,11.1-8,17.7-10c1.6-0.6,3.3-0.9,5-1.3c1.7-0.3,3.4-0.5,5.1-0.8c3.5-0.2,7-0.4,10.4,0.1   c6.9,0.7,13.8,2.7,19.8,6.3c6,3.5,11.3,8.4,14.8,14.5c3.6,6,5.6,13,6.1,20.2v0c0.1,1.9,0.6,2.8,1,2.8c0.4,0,0.8-1,0.7-2.9v0   c-0.1-7.4-1.8-14.8-5.3-21.5c-3.4-6.7-8.9-12.4-15.3-16.5c-6.4-4.2-13.7-6.7-21.3-7.7c-3.8-0.6-7.6-0.6-11.4-0.5   c-1.9,0.2-3.8,0.3-5.7,0.7c-1.9,0.4-3.8,0.6-5.6,1.2c-7.4,2-14.5,5.6-20.3,10.9c-5.8,5.2-10.2,12.1-12.7,19.5   c-1.5,4.8-2.3,9.8-2.5,14.7c-0.1,0.2-0.1,0.3-0.1,0.5v13.4c0,6.7,0.7,13.4,2.2,20.1c-2.3,0.1-4.6,0.2-6.9,0.3l-1.2,0.1l-0.3,0   l-0.5,0l-1.1,0l-2.1,0.1c-0.7,0-1.2,0.2-1.7,0.3l-1.6,0.4c0,0-0.2,0-0.1,0.1l0,0.2l0.1,0.5l0.2,1c0.2,1.2,0.5,2.4,0.9,3.6   c0.5,1.1,1.2,2.3,2,3.2c0.1,0.1,0.3,0.2,0.4,0.4l0,4.4c0,1,0,1.2,0,1.8l0.1,1.4c0.1,1.9,0.3,3.9,0.7,6c0.4,2,1.1,4.1,2.6,5.9   c0.3,0.5,0.8,0.8,1.3,1.2c0.4,0.4,1,0.6,1.5,0.8c1,0.4,2.2,0.6,3.2,0.5c0.5,0,0.7-0.4,0.7-0.8c0-0.4-0.2-0.8-0.6-0.9   c-1.7-0.3-2.9-1.3-3.6-2.6c-0.7-1.3-0.9-3-1-4.7c-0.1-1.7,0.1-3.5,0.3-5.3l0.1-1.4c0-0.4,0.1-1.1,0.1-1c0.1-0.2,0.1-0.3,0.2-0.4   c0.2,0,0.3,0.1,0.4,0.1l0.1,0l0,0c0,0,0,0,0.1,0l1.2,0.1l2.7,0.1c0.4,0.2,0.8,0.3,1.2,0.3c1.9,0,3.9,0.1,5.9-0.1c1.4,0,3.1,0,2.5,0   l0,0.8c-0.1,2-0.3,3.9-0.7,5.5c-0.4,1.6-1.1,2.7-2.1,3.6c-1,0.9-2.5,1.5-4.2,1.9c-0.4,0.1-0.8,0.3-1.1,0.5   c-0.4,0.2-0.7,0.5-0.9,0.9c-0.5,0.7-0.8,1.6-0.7,2.6c0.1,0.9,0.6,1.7,1.4,2.3c0.4,0.3,0.9,0.4,1.4,0.5c0.5,0.1,1.1,0,1.6-0.1   c2.3-0.6,4.9-1.6,7-3.4c2.2-1.9,3.6-4.6,4.2-7c0.7-2.5,0.8-4.8,0.9-7l0-0.4l0-0.7l0-1.4l0-1.5c0.5-0.5,1.1-0.9,1.6-1.5l0.9-1.1   c0.4-0.4,0.5-0.9,0.7-1.3l0.1-0.2c0.2,0.1,0.4,0.3,0.6,0.4l3,1.9c1,0.6,2.1,1.1,3.2,1.6c0.5,0.3,1.1,0.6,1.6,0.8l1.7,0.7   c2.2,1,4.5,1.6,6.8,2.3c1.1,0.3,2.3,0.5,3.5,0.8c0.6,0.1,1.2,0.3,1.7,0.3l1,0.1c-0.2,0.3-0.3,0.5-0.3,0.8v14.3   c0,7.6,0.8,15.2,2.5,22.8c-2.4-0.1-4.8-0.1-7.1-0.1c-2.3,0-4.6-0.1-6.6-0.6c-2-0.5-3.5-1.5-5.4-3c-1-0.7-2.1-1.5-3.5-2.1   c-1.4-0.6-3.1-0.9-4.6-0.8c-5.9,0.2-11.3,3.9-13.9,9.1c-0.2,0.3-0.3,0.7-0.5,1l-0.2,0.5c-0.1,0.2-0.2,0.5-0.3,0.8l-0.5,1.7   c-0.1,0.6-0.2,1.1-0.3,1.6c-0.2,1.1-0.1,2.1-0.2,3.2l0,0.8l0,0.4c0,0.1,0,0.2,0,0.2l0.2,0l1.5,0.2l1.5,0.2c0.5,0.1,1.2,0,1.7,0   l3.1,0l3.6,0h17.3c3,0,5.5,0.1,8.5,0.2c0.8,0,1.6,0.1,2.5,0c0.5,0,1.1-0.1,1.6-0.2c0.7-0.2,1.4-0.4,2-0.7c1.3-0.6,2.2-1.9,2.8-3.1   c0.1-0.3,0.2-0.6,0.3-0.9l0.1-0.4l0.1-0.4c0.1-0.5,0.2-1,0.3-1.4c0.3-3.1-1.2-5.2-2.9-5.4c0.3,0,0.6-0.2,0.6-0.4v0   c1.7-7.8,2.6-15.5,2.6-23.3v-14.3c0-0.1,0-0.2,0-0.3c1.2,0,2.4,0,3.7,0c0,0.1,0,0.2,0,0.3v14.3c0,7.8,0.9,15.6,2.6,23.3v0   c0,0.2,0.3,0.3,0.6,0.4c-1.8,0.2-3.3,2.3-2.9,5.4c0,0.4,0.2,0.9,0.3,1.4l0.1,0.4l0.1,0.4c0.1,0.3,0.2,0.6,0.3,0.9   c0.6,1.2,1.5,2.5,2.8,3.1c0.6,0.4,1.3,0.5,2,0.7c0.5,0.1,1.1,0.2,1.6,0.2c0.9,0,1.7,0,2.5,0c3-0.2,5.6-0.3,8.5-0.2h17.3l3.6,0   l3.1,0c0.6,0,1.2,0,1.7,0l1.5-0.2l1.5-0.2l0.2,0c0.1,0,0-0.1,0-0.2l0-0.4l0-0.8c-0.1-1.1-0.1-2.1-0.2-3.2c-0.1-0.6-0.1-1.1-0.3-1.6   l-0.5-1.7c-0.1-0.3-0.2-0.6-0.3-0.8l-0.2-0.5c-0.1-0.3-0.3-0.7-0.5-1c-2.6-5.2-8-8.9-13.9-9.1c-1.5-0.1-3.2,0.2-4.6,0.8   c-1.4,0.6-2.6,1.4-3.5,2.1c-1.9,1.5-3.4,2.5-5.4,3c-2,0.5-4.3,0.6-6.6,0.6c-2.3,0-4.7,0-7.1,0.1c1.6-7.6,2.5-15.2,2.5-22.8v-14.3   c0-0.3-0.1-0.6-0.3-0.9c4.1-0.6,8.1-1.6,12-3.1c3.5-1.3,6.9-3.1,10.1-5.2c0,0.1,0,0.3,0.1,0.4c0,0.4,0.2,0.9,0.4,1.3l0.6,1.3   c0.2,0.4,0.3,0.9,0.7,1.3l0.9,1.1c0.5,0.6,1.1,1,1.6,1.5c0,0,0,0,0,0c-0.2,0.4-0.3,0.9-0.4,1.3c-0.1,0.5-0.1,1-0.2,1.5   c0,0.8,0,1.6,0.1,2.1c0.1,1.2,0.3,2.2,0.5,3.3c0.2,1.1,0.5,2.3,0.8,3.5c0.8,2.4,2.3,5,4.6,6.7c2.3,1.7,4.8,2.5,7,3   c2.2,0.5,4-0.9,4.2-2.8c0.2-1.9-1.1-3.6-2.7-3.9c-1.8-0.4-3.3-1-4.3-1.7c-1-0.8-1.7-1.9-2.2-3.4c-0.2-0.8-0.4-1.6-0.6-2.5   c-0.2-1-0.3-2-0.4-2.8l-0.1-1l3.4-0.4c2,0.1,3.9,0.1,5.7,0.1c0.8,0,1.5-0.3,2.1-0.8c1,0,2-0.1,2.9,0c0.3,0,0.7,0,1,0.1   c0.2,0,0.2,0,0.2,0c0,0,0.1,0,0.1,0c0.1,0,0.2,0,0.4,0.3c0.4,0.8,0.7,2.2,0.6,3.7c-0.1,1.4-0.3,2.9-0.7,4.4c-0.4,1.5-1,2.9-1.8,4.2   c-0.8,1.3-1.8,2.4-3,2.9v0c-0.3,0.1-0.5,0.5-0.5,1c0,0.4,0.2,0.8,0.8,0.8h0c2.1-0.2,3.8-1.4,5-2.8c1.3-1.4,2.4-2.9,3.2-4.5   c0.8-1.7,1.5-3.4,1.9-5.3c0.3-1.9,0.5-4-0.2-6.3c-0.2-0.6-0.6-1.3-1-2l-0.3-0.4c0.4-0.3,0.8-0.7,1.2-1.1c0.8-0.9,1.5-2,2-3.2   c0.5-1.2,0.7-2.4,0.9-3.6l0.2-1l0.1-0.5l0-0.2C165.1,110.9,164.9,110.9,164.9,110.9z M54.5,99c0.6,1.2,1.3,2.4,2.1,3.5l1,1.5   l0.5,0.7l0.6,0.7l0.4,0.5l-0.3,0l-5,0.1c-0.2,0-0.3,0-0.5,0C53.8,103.7,54.2,101.3,54.5,99z M40.6,111.9c0-0.1,0-0.3,0.1-0.3   l0.5,0.1c0.3,0.1,0.6,0.1,0.8,0.2l0.2,0c0,0,0,0,0.1,0l0.3,0l1.2,0.1c3.3,0.2,6.6,0.4,10,0.5l5,0.1l2.5,0l0.6,0c0,0,0,0,0,0.1   c-0.2,0.2-0.4,0.4-0.6,0.6c-0.2,0.2-0.5,0.3-0.8,0.5c-1.2,0.6-2.8,0.9-4.6,1.1c-0.7,0.1-1.4,0.1-2.1,0.1l-1.1,0c-0.8,0-1.6,0-2.5,0   c-0.3,0-0.6,0-0.9,0.1l-7,0.2c-0.5-0.5-0.8-1-1.2-1.5c-0.2-0.4-0.3-0.8-0.4-1.1C40.5,112.4,40.5,112.1,40.6,111.9z M91.1,166.9   c0,0.3-0.1,0.5-0.1,0.7l0,0.2l0,0.1l0,0.1l0,0l-0.5,0.1c-0.5,0-1.2,0-1.8,0l-4.4-0.2c-1.5,0-3,0-4.4,0H62.3l-3.6,0l-0.4,0   c-0.1,0,0,0-0.1,0l0,0l0,0c0,0,0,0-0.1,0c0,0,0,0,0-0.1c0,0,0,0,0-0.1l0.1-0.3c0.1-0.2,0.2-0.4,0.3-0.6c1.5-3.3,4.8-5.9,8.4-6.4   c1.7-0.2,3,0.2,5.1,1.4c1,0.6,2.1,1.3,3.4,1.8c1.3,0.5,2.7,0.9,4,1.1c2.7,0.3,5.1,0,7.5-0.3c1.9-0.3,3.8-0.6,5.7-0.9   C91.8,164.4,91.3,165.7,91.1,166.9z M120.6,164.7c1.3-0.1,2.8-0.5,4-1.1c1.3-0.5,2.4-1.2,3.4-1.8c2-1.2,3.4-1.7,5.1-1.4   c3.6,0.5,6.9,3.1,8.4,6.4c0.1,0.2,0.2,0.4,0.3,0.6l0.1,0.3c0,0,0,0.1,0,0.1c0,0,0,0,0,0.1c0,0,0,0-0.1,0l0,0l0,0c0,0,0,0-0.1,0   l-0.4,0l-3.6,0h-17.3c-1.4,0-2.9,0-4.4,0l-4.4,0.2c-0.7,0-1.3,0-1.8,0l-0.5-0.1l0,0l0-0.1l0-0.1l0-0.2c0-0.3-0.1-0.4-0.1-0.7   c-0.1-1.3-0.7-2.5-1.5-3.4c1.9,0.3,3.8,0.6,5.7,0.9C115.5,164.7,118,165,120.6,164.7z M157.4,115.5l0.3,0c0.1,0,0.1,0,0.1,0l0.2,0   c0.2-0.1,0.5-0.1,0.8-0.2l0.5-0.1c0.1,0,0.1,0.2,0.1,0.3c0.1,0.2,0.1,0.5,0,0.8c-0.1,0.3-0.1,0.6-0.4,1.1c-0.4,0.6-0.8,1.1-1.3,1.6   c-0.2-0.1-0.5-0.1-0.6-0.2c-0.5-0.1-1-0.2-1.5-0.3c-1.9-0.3-3.7-0.3-5.5-0.3c-1.8,0-3.5,0.1-5.3,0.2l-0.4,0c-0.1,0-0.2,0-0.3,0   c-1.8-0.1-3.4-0.5-4.6-1.1c-0.3-0.2-0.5-0.3-0.8-0.5c-0.2-0.2-0.5-0.3-0.6-0.6c0,0,0,0,0-0.1l0.6,0l2.5,0l5-0.1   c3.3-0.1,6.6-0.3,10-0.5L157.4,115.5z M145.1,99.6c0.4,3.3,0.9,6.6,1.6,9.9c-0.2,0-0.3,0-0.5,0l-5-0.1l-2.5,0l-1,0   C140.7,106.4,143.1,103.1,145.1,99.6z"/><path d="M100.6,66.6c1.8-0.1,3.7-1.5,4.2-3.4c0.3-0.9-0.3-1.6-0.9-1.6l0,0v0c0.1,0,0.3-0.1,0.3-0.3c0.1-1.3-0.5-2.7-1.6-3.6   c-1.1-0.9-2.7-1.1-4.1-0.8c-1.4,0.3-2.8,1.5-3.3,3c-0.5,1.5-0.4,3.1,0.5,4.4C96.8,66.1,98.8,66.9,100.6,66.6z"/><path d="M86.6,51.7c0.2,0.1,0.5,0.3,0.7,0.4c-1.8,2-3.1,4.5-3.7,7.3c-0.8,3.9,0,8.2,2,11.8c0.4,0.9,1.1,1.7,1.8,2.6   c0.7,0.8,1.5,1.5,2.2,2.3c1.7,1.3,3.6,2.5,5.7,3c4.2,1.2,8.8,0.9,12.7-1.1c4.8-2.5,8.1-7.1,9.3-12.2c0.6-2.5,0.8-5.2,0.2-7.8   l-0.2-1l-0.3-1c-0.2-0.6-0.4-1.3-0.7-1.9c-0.6-1.2-1.2-2.4-2.1-3.4c-0.2-0.2-0.3-0.4-0.5-0.5c2.6-2,4.7-4.5,6.1-7.3   c0.3-0.5-1-1.4-1.4-1.1c-6.6,5.6-14.7,7.4-22.2,6.1c-1.2-0.1-2.3-0.5-3.4-0.8c-1.1-0.5-2.2-0.8-3.2-1.4c-2.1-1-3.8-2.6-5.4-4.2   c-0.7-0.8-2.5-0.6-4,0.5c-1.5,1.1-2,2.9-1.1,4.1C81.4,48.3,83.8,50.3,86.6,51.7z M95.2,54.7c4.4,0.7,9,0.3,13.1-1.4   c0,0.1,0.1,0.3,0.1,0.4c0.1,0.4,0.2,0.7,0.5,1c0.6,0.6,0.9,1.4,1.3,2.1c0.2,0.4,0.3,0.8,0.4,1.1l0.2,0.6l0.1,0.6   c0.4,1.6,0.2,3.3-0.1,4.9c-0.8,3.3-3,6.2-5.8,7.7c-2.3,1.2-5.2,1.5-7.8,0.9c-1.3-0.2-2.5-0.9-3.7-1.6c-0.5-0.4-1.1-0.8-1.6-1.3   c-0.5-0.5-1-1-1.4-1.6c-1.7-2.3-2.8-5.3-2.8-8.3c0-2.3,0.7-4.7,2-6.7c0.4,0.2,0.8,0.3,1.2,0.5C92.3,54,93.7,54.5,95.2,54.7z"/><path d="M113.4,96.8c-1.3-0.8-2.8-1.3-4.2-1.9c-1.5-0.4-2.9-0.9-4.5-1.1c-4.9-0.8-10.2-0.2-14.6,2c-4.4,2.1-8.1,5.7-10.2,9.8   c-0.3,0.5,1,1.4,1.4,1.1c6.6-5.6,14.7-7.4,22.2-6.1c1.2,0.1,2.3,0.5,3.4,0.8c1.1,0.5,2.2,0.8,3.2,1.4c2.1,1,3.8,2.6,5.4,4.2   c0.7,0.8,2.5,0.6,4-0.5h0c1.5-1.1,2-2.9,1.1-4.1C118.6,100.2,116.2,98.2,113.4,96.8z"/></g></svg>
